<svg width="512" height="512" viewBox="0 0 512 512" fill="none" xmlns="http://www.w3.org/2000/svg">
  <rect width="512" height="512" rx="120" fill="#05030A"/>
  <rect x="24" y="24" width="464" height="464" rx="104" fill="url(#paint0_radial)"/>
  <rect x="34" y="34" width="444" height="444" rx="94" stroke="#D7A83F" stroke-opacity="0.35" stroke-width="4"/>
  <circle cx="256" cy="256" r="162" fill="#0B1020" stroke="#D7A83F" stroke-opacity="0.38" stroke-width="3"/>
  <circle cx="256" cy="256" r="122" fill="url(#paint1_radial)" stroke="#F7D778" stroke-opacity="0.25" stroke-width="2"/>

  <path d="M161 301L180 207L224 253L256 164L288 253L332 207L351 301H161Z" fill="#D7A83F"/>
  <path d="M171 319H341L326 349H186L171 319Z" fill="#F7D778"/>
  <path d="M214 301L256 202L298 301H214Z" fill="#FFF0B8" fill-opacity="0.22"/>

  <circle cx="180" cy="207" r="16" fill="#F7D778"/>
  <circle cx="256" cy="164" r="18" fill="#F7D778"/>
  <circle cx="332" cy="207" r="16" fill="#F7D778"/>

  <path d="M142 379H370" stroke="#D7A83F" stroke-opacity="0.55" stroke-width="6" stroke-linecap="round"/>
  <path d="M174 393H338" stroke="#D7A83F" stroke-opacity="0.28" stroke-width="4" stroke-linecap="round"/>

  <text x="256" y="424" text-anchor="middle" fill="#F7D778" font-family="Georgia, serif" font-size="42" font-weight="700" letter-spacing="10">L</text>

  <defs>
    <radialGradient id="paint0_radial" cx="0" cy="0" r="1" gradientUnits="userSpaceOnUse" gradientTransform="translate(130 90) rotate(53) scale(470)">
      <stop stop-color="#2B1B4D"/>
      <stop offset="0.45" stop-color="#071827"/>
      <stop offset="1" stop-color="#02030A"/>
    </radialGradient>
    <radialGradient id="paint1_radial" cx="0" cy="0" r="1" gradientUnits="userSpaceOnUse" gradientTransform="translate(223 190) rotate(63) scale(210)">
      <stop stop-color="#D7A83F" stop-opacity="0.24"/>
      <stop offset="0.55" stop-color="#0EA5E9" stop-opacity="0.10"/>
      <stop offset="1" stop-color="#000000" stop-opacity="0"/>
    </radialGradient>
  </defs>
</svg>
